# xmcd
#
# Track frame offsets:
#	150
#	13062
#	22235
#	38487
#	57182
#	75110
#	91895
#	108360
#	119592
#	134922
#	147685
#	159490
#	174135
#	201295
#
# Disc length: 2958 seconds
#
# Revision: 0
# Processed by: cddbd v1.5PL3 Copyright (c) Steve Scherf et al.
# Submitted via: dBpowerAMP V4.0
#
DISCID=bb0b8c0e
DTITLE=Jump 4 Joy - Love Patrol
DYEAR=1900
DGENRE=Blues
TTITLE0=Alice's Moose
TTITLE1=Castle Rock
TTITLE2=Caretaker
TTITLE3=Flamingo
TTITLE4=Running Back
TTITLE5=Love Patrol
TTITLE6=Waltzing Matilda
TTITLE7=Eliza Jane
TTITLE8=Rockin' Robin
TTITLE9=Nice try
TTITLE10=Shocking
TTITLE11=Do the Louie
TTITLE12=Bauer Mood
TTITLE13=DATA
EXTD=Andreas Sidkvist
EXTT0=
EXTT1=
EXTT2=
EXTT3=
EXTT4=
EXTT5=
EXTT6=
EXTT7=
EXTT8=
EXTT9=
EXTT10=
EXTT11=
EXTT12=
EXTT13=
PLAYORDER=
